# xmcd CD database file
#
# Track frame offsets:
#	150
#	12937
#	26345
#	41300
#	55107
#	69637
#	83362
#	98322
#	113327
#	127292
#	142552
#	157630
#	173022
#	188462
#	202722
#	217145
#	230705
#	245972
#
# Disc length: 3481 seconds
#
# Revision: 0
# Processed by: cddbd v1.5.2PL0 Copyright (c) Steve Scherf et al.
# Submitted via: CDex 1.50
#
DISCID=d30d9712
DTITLE=Louis Armstrong - Essential Louis Armstrong
DYEAR=2004
DGENRE=Jazz
TTITLE0=Sugar Foot Stomp
TTITLE1=Cake Walking Babies (from Home)
TTITLE2=Pickin' on Your Baby
TTITLE3=Heebie Jeebies
TTITLE4=Willie the Weeper
TTITLE5=Potato Head Blues
TTITLE6=West End Blues
TTITLE7=Basin Street Blues
TTITLE8=Beau Koo Jack
TTITLE9=St. James' Infirmary
TTITLE10=Tight Like This
TTITLE11=I Can't Give You Anything But Love
TTITLE12=Ain't Misbehavin'
TTITLE13=Black and Blue
TTITLE14=That Rhythm Man
TTITLE15=St. Louis Blues
TTITLE16=Bessie Couldn't Help It
TTITLE17=I'm Confessin'
EXTD=YEAR: 2004
EXTT0=
EXTT1=
EXTT2=
EXTT3=
EXTT4=
EXTT5=
EXTT6=
EXTT7=
EXTT8=
EXTT9=
EXTT10=
EXTT11=
EXTT12=
EXTT13=
EXTT14=
EXTT15=
EXTT16=
EXTT17=
PLAYORDER=
